<svg width="24" height="24" viewBox="0 0 24 24" fill="none" xmlns="http://www.w3.org/2000/svg">
<path d="M21.0905 1.34595H2.68177C1.80025 1.34595 1.08577 2.03859 1.08577 2.89347V21.3977C1.08577 22.2526 1.80049 22.9459 2.68177 22.9459H21.0905C21.972 22.9459 22.6855 22.2523 22.6855 21.3977V2.89347C22.6855 2.03883 21.972 1.34595 21.0905 1.34595ZM7.63417 19.4266H4.37065V9.67443H7.63417V19.4266ZM6.00265 8.34219H5.98081C4.88641 8.34219 4.17697 7.59363 4.17697 6.65667C4.17697 5.70075 4.90729 4.97259 6.02329 4.97259C7.13953 4.97259 7.82617 5.70051 7.84777 6.65667C7.84777 7.59387 7.13977 8.34219 6.00265 8.34219ZM19.3985 19.4266H16.1359V14.209C16.1359 12.8976 15.6631 12.0031 14.4833 12.0031C13.5806 12.0031 13.045 12.6067 12.8098 13.1892C12.7224 13.3975 12.701 13.6884 12.701 13.9793V19.4263H9.43897C9.43897 19.4263 9.48169 10.5888 9.43897 9.67419H12.7013V11.0568C13.1345 10.3925 13.9082 9.44475 15.641 9.44475C17.7883 9.44475 19.3985 10.8377 19.3985 13.8346V19.4266ZM12.6802 11.0878C12.6859 11.0787 12.6936 11.0676 12.7013 11.0571V11.0878H12.6802Z" fill="#2091CB"/>
</svg>
