<svg width="148" height="148" viewBox="0 0 148 148" fill="none" xmlns="http://www.w3.org/2000/svg">
<g filter="url(#filter0_d_6_9)">
<circle cx="74" cy="50" r="24" fill="#F5F5FA"/>
</g>
<path d="M66.5797 58.3297V41.6704C66.5797 40.9508 67.3743 40.5172 67.9789 40.904L81.0008 49.2337C81.561 49.5922 81.561 50.4079 81.0008 50.7665L67.9789 59.0962C67.3743 59.4829 66.5797 59.0493 66.5797 58.3297Z" fill="#DD3937"/>
<path d="M66.9312 58.3297C66.9312 58.0016 66.9312 57.6711 66.9312 57.343C66.9312 56.5063 66.9312 55.6696 66.9312 54.8329C66.9312 53.6961 66.9312 52.5594 66.9312 51.425C66.9312 50.2063 66.9312 48.9875 66.9312 47.7665C66.9312 46.679 66.9312 45.5915 66.9312 44.5016C66.9312 43.7586 66.9312 43.018 66.9312 42.275C66.9312 42.1016 66.9312 41.9258 66.9312 41.7524C66.9312 41.7266 66.9312 41.6985 66.9312 41.6727C66.9312 41.661 66.9312 41.6563 66.9312 41.6399C66.9312 41.6188 66.9336 41.6 66.9359 41.579C66.9312 41.654 66.9336 41.5907 66.9383 41.5696C66.95 41.5274 66.9617 41.4852 66.9734 41.4454C66.95 41.5157 66.9664 41.4571 66.9781 41.4383C66.9945 41.4102 67.0086 41.3821 67.0273 41.354C67.0367 41.3375 67.0484 41.3235 67.0578 41.3094C67.0156 41.368 67.0437 41.3282 67.0554 41.3165C67.0883 41.2836 67.1187 41.2532 67.1539 41.2227C67.0976 41.2719 67.1398 41.2321 67.1586 41.2204C67.1773 41.2086 67.1961 41.1969 67.2172 41.1852C67.2336 41.1758 67.25 41.1688 67.2664 41.1594C67.3344 41.1219 67.2148 41.1735 67.2828 41.1524C67.3273 41.1407 67.3695 41.1266 67.414 41.1172C67.4937 41.0961 67.3672 41.1102 67.4164 41.1172C67.4375 41.1196 67.4633 41.1149 67.4844 41.1149C67.5031 41.1149 67.5219 41.1149 67.5406 41.1172C67.5453 41.1172 67.632 41.1336 67.5781 41.1196C67.5219 41.1055 67.6133 41.129 67.6156 41.129C67.6437 41.136 67.6719 41.1454 67.6976 41.1547C67.7586 41.1735 67.7094 41.1594 67.6953 41.1524C67.7234 41.1665 67.7492 41.1805 67.775 41.1946C67.7844 41.1993 67.7937 41.2063 67.8008 41.211C67.8031 41.2133 67.8054 41.2133 67.8078 41.2157C67.8406 41.2368 67.8758 41.2579 67.9086 41.279C68.0844 41.3915 68.2578 41.5016 68.4336 41.6141C69.1156 42.05 69.8 42.4883 70.482 42.9243C71.4429 43.5407 72.4062 44.1547 73.3672 44.7711C74.3867 45.4227 75.4062 46.0766 76.4281 46.7282C77.307 47.2907 78.1836 47.8508 79.0625 48.4133C79.5851 48.7485 80.1078 49.0836 80.6328 49.4165C80.6844 49.4493 80.7336 49.4821 80.7851 49.5125C80.7969 49.5196 80.8086 49.5266 80.8203 49.5336C80.8226 49.5336 80.825 49.536 80.825 49.536C80.8414 49.5477 80.8601 49.5594 80.8765 49.5711C80.8226 49.529 80.8742 49.5711 80.8859 49.5829C80.9094 49.6086 80.9328 49.6321 80.9562 49.6555C80.9703 49.6696 80.9844 49.7071 80.9539 49.6532C80.9633 49.6696 80.975 49.6836 80.9844 49.7C80.9984 49.7235 81.0101 49.7493 81.0242 49.775C81.0336 49.7938 81.0406 49.8336 81.0219 49.768C81.0359 49.8125 81.05 49.8547 81.0617 49.9016C81.0664 49.9204 81.0687 49.9368 81.0711 49.9555C81.057 49.8665 81.0687 49.9508 81.0687 49.9719C81.0687 49.9977 81.057 50.136 81.0711 50.0422C81.064 50.0868 81.0547 50.1336 81.0406 50.1758C81.0359 50.1946 81.0289 50.211 81.0219 50.2274C81.0453 50.1547 81.0289 50.2133 81.0172 50.2321C81.0054 50.2532 80.9961 50.2743 80.982 50.293C80.975 50.3024 80.9211 50.3774 80.9703 50.3141C80.9398 50.3516 80.9047 50.3844 80.8695 50.4196C80.8601 50.429 80.8179 50.4618 80.8695 50.4219C80.8508 50.436 80.839 50.443 80.8179 50.4571C80.8156 50.4571 80.8156 50.4594 80.8133 50.4594C80.8039 50.4665 80.7922 50.4735 80.7828 50.4782C80.3844 50.7336 79.9859 50.9868 79.5875 51.2422C78.7836 51.7555 77.9797 52.2711 77.1758 52.7844C76.1656 53.429 75.1578 54.0758 74.1476 54.7204C73.1562 55.3555 72.1625 55.9907 71.1711 56.6258C70.3953 57.1227 69.6195 57.6196 68.8437 58.1141C68.4969 58.3368 68.1523 58.5618 67.8031 58.7797C67.7656 58.8032 67.7281 58.8243 67.6883 58.8454C67.7469 58.8149 67.7047 58.8383 67.6906 58.843C67.6672 58.85 67.6437 58.8571 67.6203 58.8641C67.5969 58.8711 67.5734 58.8735 67.55 58.8805C67.6133 58.8618 67.5851 58.8782 67.5594 58.8782C67.5125 58.8805 67.4679 58.8805 67.4211 58.8782C67.3554 58.8758 67.4187 58.8782 67.4328 58.8805C67.407 58.8758 67.3789 58.8711 67.3531 58.8641C67.3297 58.8594 67.2289 58.8219 67.2664 58.8383C67.3039 58.8547 67.2054 58.8055 67.1867 58.7938C67.1679 58.7821 67.1492 58.7657 67.1304 58.7563C67.0859 58.7352 67.1844 58.8102 67.1258 58.7516C67.0929 58.7188 67.0601 58.6883 67.0297 58.6532C67.0789 58.7071 67.0203 58.6368 67.0039 58.6133C66.9898 58.5899 66.9781 58.5641 66.964 58.5407C66.9547 58.5219 66.95 58.4844 66.9664 58.5477C66.9547 58.5008 66.9383 58.4563 66.9265 58.4094C66.9219 58.3907 66.9242 58.3461 66.9265 58.4141C66.9336 58.3907 66.9312 58.3602 66.9312 58.3297C66.9289 58.1469 66.7719 57.9688 66.5797 57.9782C66.3922 57.9875 66.2258 58.1329 66.2281 58.3297C66.2351 58.7938 66.4883 59.2415 66.9125 59.45C67.3133 59.6469 67.7773 59.6352 68.1594 59.3985C68.2461 59.3446 68.3328 59.2883 68.4172 59.2321C68.9867 58.8688 69.5562 58.5032 70.1258 58.1399C71.0422 57.554 71.9586 56.968 72.875 56.3821C73.9133 55.7165 74.9539 55.0532 75.9922 54.3875C76.939 53.7829 77.8859 53.1758 78.8328 52.5711C79.4703 52.1633 80.1101 51.7555 80.7476 51.3454C80.8812 51.261 81.0148 51.1743 81.1484 51.0899C81.275 51.0079 81.3945 50.9141 81.4883 50.7946C81.7953 50.4079 81.8515 49.8946 81.6429 49.4469C81.514 49.1727 81.2844 48.9993 81.0406 48.8422C80.8531 48.7227 80.6633 48.6008 80.4758 48.4813C79.7609 48.0243 79.0461 47.5672 78.3336 47.1102C77.3492 46.4797 76.3625 45.8493 75.3781 45.2188C74.3422 44.5579 73.3086 43.8946 72.2726 43.2336C71.4078 42.6805 70.5429 42.1274 69.6781 41.5743C69.2047 41.2719 68.7336 40.9696 68.2601 40.6672C67.939 40.461 67.5828 40.3555 67.1984 40.4422C66.6054 40.5758 66.2281 41.1219 66.2258 41.7125C66.2258 42.1696 66.2258 42.6243 66.2258 43.0813C66.2258 44.0188 66.2258 44.9563 66.2258 45.8938C66.2258 47.0844 66.2258 48.2727 66.2258 49.4633C66.2258 50.6844 66.2258 51.9079 66.2258 53.129C66.2258 54.1625 66.2258 55.1961 66.2258 56.2321C66.2258 56.8508 66.2258 57.4672 66.2258 58.086C66.2258 58.168 66.2258 58.25 66.2258 58.3344C66.2258 58.5172 66.3875 58.6954 66.5773 58.686C66.7695 58.6719 66.9312 58.5266 66.9312 58.3297Z" fill="#DD3937"/>
<defs>
<filter id="filter0_d_6_9" x="0" y="0" width="148" height="148" filterUnits="userSpaceOnUse" color-interpolation-filters="sRGB">
<feFlood flood-opacity="0" result="BackgroundImageFix"/>
<feColorMatrix in="SourceAlpha" type="matrix" values="0 0 0 0 0 0 0 0 0 0 0 0 0 0 0 0 0 0 127 0" result="hardAlpha"/>
<feOffset dy="24"/>
<feGaussianBlur stdDeviation="25"/>
<feComposite in2="hardAlpha" operator="out"/>
<feColorMatrix type="matrix" values="0 0 0 0 0 0 0 0 0 0 0 0 0 0 0 0 0 0 0.15 0"/>
<feBlend mode="normal" in2="BackgroundImageFix" result="effect1_dropShadow_6_9"/>
<feBlend mode="normal" in="SourceGraphic" in2="effect1_dropShadow_6_9" result="shape"/>
</filter>
</defs>
</svg>
